# xmcd
#
# Track frame offsets:
#	150
#	14297
#	27180
#	38259
#	51908
#	65891
#	76350
#	87101
#	96375
#	107753
#	116965
#	126434
#	137077
#	149354
#	160520
#	172567
#	184565
#	196410
#	205521
#	217498
#	227243
#	239781
#	251619
#	268977
#	280101
#	292695
#	304770
#	315371
#
# Disc length: 4344 seconds
#
# Revision: 1
# Processed by: cddbd v1.5.2PL0 Copyright (c) Steve Scherf et al.
# Submitted via: audiograbber 1.83.01
#
DISCID=9410f61c
DTITLE=Classic Country #3 - Country
DYEAR=1900
DGENRE=Country
TTITLE0=Patty Page - Tennessee Waltz
TTITLE1=Ronnie Milsap - I Hate You
TTITLE2=Ronnie Milsap - All Together Now
TTITLE3=Ronnie Milsap - That Girl That Waits ON Tables
TTITLE4=Ronnie Milsap - Don't You Ever Get Tire
TTITLE5=We3bb Pierce - There's More Pretty Girls Than One
TTITLE6=Webb Pierce - In The Jailhouse Now
TTITLE7=Webb Pierce - Love, Love, Love
TTITLE8=Webb Pierce - More And More
TTITLE9=Webb Pierce - I Ain't Never
TTITLE10=Webbb Pierce - Honky Tonk Song
TTITLE11=Webb Pierce - Cow Town
TTITLE12=Webb Pierce - Memory #1
TTITLE13=Webb Pierce - No Love Have I
TTITLE14=Kitty Wells - Searching
TTITLE15=Kitty Wells - Heartbreak USA
TTITLE16=Kitty Wells - Password
TTITLE17=Kitty Wells - I'll Reprosess My Heart
TTITLE18=Kitty Wells - Lonely Side Of Town
TTITLE19=Johnny and Jack - Stop The World And Let Me Off
TTITLE20=Skeets McDonald - Don't Let Stars Get In Your Eyes
TTITLE21=Goldie Hill - I Let Stars Get In My Eyes
TTITLE22=Louvin Brothers - Somebodys Back In Town
TTITLE23=Wilburn Brothers - Knoxville Girl
TTITLE24=Bill Anderson - I Love You Drops
TTITLE25=Mel Tillis - She'll Be Hanging Around Somewhere
TTITLE26=Mel Tillis - Goodbye Wheeling
TTITLE27=Mel Tillis - Stateside3
EXTD=
EXTT0=
EXTT1=
EXTT2=
EXTT3=
EXTT4=
EXTT5=
EXTT6=
EXTT7=
EXTT8=
EXTT9=
EXTT10=
EXTT11=
EXTT12=
EXTT13=
EXTT14=
EXTT15=
EXTT16=
EXTT17=
EXTT18=
EXTT19=
EXTT20=
EXTT21=
EXTT22=
EXTT23=
EXTT24=
EXTT25=
EXTT26=
EXTT27=
PLAYORDER=
